<svg width="37" height="13" viewBox="0 0 37 13" fill="none" xmlns="http://www.w3.org/2000/svg">
<path d="M9.64069 9.072C9.64069 9.712 9.47535 10.2507 9.14469 10.688C8.81402 11.1147 8.36602 11.44 7.80069 11.664C7.24602 11.888 6.63802 12 5.97669 12H0.488688V0.639999H6.56869C7.10202 0.639999 7.56069 0.783999 7.94469 1.072C8.33935 1.34933 8.63802 1.712 8.84069 2.16C9.05402 2.59733 9.16069 3.056 9.16069 3.536C9.16069 4.08 9.02202 4.59733 8.74469 5.088C8.46735 5.57867 8.06202 5.94133 7.52869 6.176C8.17935 6.368 8.69135 6.71467 9.06469 7.216C9.44869 7.71733 9.64069 8.336 9.64069 9.072ZM7.41669 8.656C7.41669 8.368 7.35802 8.112 7.24069 7.888C7.12335 7.65333 6.96335 7.472 6.76069 7.344C6.56869 7.20533 6.34469 7.136 6.08869 7.136H2.69669V10.128H5.97669C6.24335 10.128 6.48335 10.064 6.69669 9.936C6.92069 9.79733 7.09669 9.616 7.22469 9.392C7.35269 9.168 7.41669 8.92267 7.41669 8.656ZM2.69669 2.528V5.392H5.64069C5.88602 5.392 6.11002 5.33333 6.31269 5.216C6.51535 5.09867 6.67535 4.93333 6.79269 4.72C6.92069 4.50667 6.98469 4.25067 6.98469 3.952C6.98469 3.664 6.92602 3.41333 6.80869 3.2C6.70202 2.98667 6.55269 2.82133 6.36069 2.704C6.17935 2.58667 5.97135 2.528 5.73669 2.528H2.69669ZM11.1557 12V3.616H13.2997V12H11.1557ZM11.1557 2.448V0.32H13.2997V2.448H11.1557ZM15.2178 0.32H17.3618V9.312C17.3618 9.696 17.4258 9.95733 17.5538 10.096C17.6818 10.224 17.8578 10.288 18.0818 10.288C18.2525 10.288 18.4285 10.2667 18.6098 10.224C18.7911 10.1813 18.9511 10.128 19.0898 10.064L19.3778 11.696C19.0898 11.8347 18.7538 11.9413 18.3698 12.016C17.9858 12.0907 17.6391 12.128 17.3298 12.128C16.6578 12.128 16.1351 11.952 15.7618 11.6C15.3991 11.2373 15.2178 10.7253 15.2178 10.064V0.32ZM22.1617 12L19.0737 3.616H21.2977L23.4097 10.048L25.5377 3.616H27.5697L24.4977 12H22.1617ZM27.9078 9.52C27.9078 8.976 28.0571 8.50133 28.3558 8.096C28.6651 7.68 29.0918 7.36 29.6358 7.136C30.1798 6.912 30.8038 6.8 31.5078 6.8C31.8598 6.8 32.2171 6.82667 32.5798 6.88C32.9425 6.93333 33.2571 7.01867 33.5238 7.136V6.688C33.5238 6.15467 33.3638 5.744 33.0438 5.456C32.7345 5.168 32.2705 5.024 31.6518 5.024C31.1931 5.024 30.7558 5.104 30.3398 5.264C29.9238 5.424 29.4865 5.65867 29.0278 5.968L28.3398 4.56C28.8945 4.19733 29.4598 3.92533 30.0358 3.744C30.6225 3.56267 31.2358 3.472 31.8758 3.472C33.0705 3.472 33.9985 3.77067 34.6598 4.368C35.3318 4.96533 35.6678 5.81867 35.6678 6.928V9.6C35.6678 9.824 35.7051 9.984 35.7798 10.08C35.8651 10.176 35.9985 10.2347 36.1798 10.256V12C35.9878 12.032 35.8118 12.0587 35.6518 12.08C35.5025 12.1013 35.3745 12.112 35.2678 12.112C34.8411 12.112 34.5158 12.016 34.2918 11.824C34.0785 11.632 33.9451 11.3973 33.8918 11.12L33.8438 10.688C33.4811 11.1573 33.0278 11.52 32.4838 11.776C31.9398 12.032 31.3851 12.16 30.8198 12.16C30.2651 12.16 29.7638 12.048 29.3158 11.824C28.8785 11.5893 28.5318 11.2747 28.2758 10.88C28.0305 10.4747 27.9078 10.0213 27.9078 9.52ZM33.1238 9.952C33.2411 9.824 33.3371 9.696 33.4118 9.568C33.4865 9.44 33.5238 9.32267 33.5238 9.216V8.368C33.2678 8.26133 32.9905 8.18133 32.6918 8.128C32.3931 8.064 32.1105 8.032 31.8438 8.032C31.2891 8.032 30.8305 8.15467 30.4678 8.4C30.1158 8.63467 29.9398 8.94933 29.9398 9.344C29.9398 9.55733 29.9985 9.76 30.1158 9.952C30.2331 10.144 30.4038 10.2987 30.6278 10.416C30.8518 10.5333 31.1185 10.592 31.4278 10.592C31.7478 10.592 32.0625 10.5333 32.3718 10.416C32.6811 10.288 32.9318 10.1333 33.1238 9.952Z" fill="black"/>
</svg>
