<svg width="20" height="20" viewBox="0 0 20 20" fill="none" xmlns="http://www.w3.org/2000/svg">
<path fill-rule="evenodd" clip-rule="evenodd" d="M0.132331 11.6944C-0.964076 4.91666 4.91666 -0.964076 11.6944 0.132331C15.7811 0.830045 19.17 4.21894 19.8677 8.30555C20.9641 15.0833 15.0833 20.9641 8.30555 19.8677C4.11927 19.17 0.830045 15.7811 0.132331 11.6944ZM9.90033 16.9771H10.1993C12.5915 16.8775 14.585 15.6814 15.8807 13.8873C14.884 13.3889 13.8873 12.9902 12.7909 12.5915L12.2925 12.3922C12.0931 12.2925 11.8938 11.9935 11.8938 11.7941C11.7941 11.2958 11.7941 10.7974 12.0931 10.3987C12.6912 9.70098 13.3889 8.80392 13.3889 6.51143V6.11274C13.3889 4.41829 11.8938 3.02286 10.0997 3.02286H10H9.60131C7.80718 3.22221 6.6111 4.71731 6.6111 6.51143C6.6111 8.80392 7.20914 9.70098 7.90686 10.3987C8.20588 10.7974 8.20588 11.2958 8.1062 11.7941C8.1062 12.0931 7.90686 12.2925 7.70751 12.3922L7.20914 12.5915C6.99031 12.679 6.76668 12.7666 6.54035 12.8552C5.73579 13.1701 4.89717 13.4983 4.11927 13.8873C5.31535 15.7811 7.50816 16.9771 9.90033 16.9771Z" fill="#252A31"/>
</svg>
